<svg width="309" height="301" viewBox="0 0 309 301" fill="none" xmlns="http://www.w3.org/2000/svg">
<rect width="309" height="301" rx="28" fill="#202020"/>
<path d="M147.591 198.636C140.955 198.636 135.273 197.712 130.545 195.864C125.818 194.015 122.106 191.485 119.409 188.273C116.712 185.061 115.091 181.424 114.545 177.364L135.591 176.182C135.985 177.606 136.712 178.848 137.773 179.909C138.864 180.97 140.273 181.788 142 182.364C143.758 182.939 145.818 183.227 148.182 183.227C151.909 183.227 154.985 182.318 157.409 180.5C159.864 178.712 161.091 175.576 161.091 171.091V158.818H160.318C159.439 160.97 158.106 162.894 156.318 164.591C154.53 166.288 152.303 167.621 149.636 168.591C147 169.561 143.97 170.045 140.545 170.045C135.455 170.045 130.788 168.864 126.545 166.5C122.333 164.106 118.955 160.409 116.409 155.409C113.894 150.379 112.636 143.909 112.636 136C112.636 127.848 113.939 121.136 116.545 115.864C119.152 110.561 122.561 106.636 126.773 104.091C131.015 101.545 135.576 100.273 140.455 100.273C144.121 100.273 147.258 100.909 149.864 102.182C152.5 103.424 154.667 105.03 156.364 107C158.061 108.97 159.348 111.015 160.227 113.136H160.864V101.182H183V171.273C183 177.182 181.515 182.167 178.545 186.227C175.576 190.288 171.424 193.364 166.091 195.455C160.758 197.576 154.591 198.636 147.591 198.636ZM148.273 153.864C150.97 153.864 153.273 153.152 155.182 151.727C157.091 150.303 158.561 148.258 159.591 145.591C160.621 142.924 161.136 139.727 161.136 136C161.136 132.212 160.621 128.955 159.591 126.227C158.591 123.47 157.121 121.348 155.182 119.864C153.273 118.379 150.97 117.636 148.273 117.636C145.515 117.636 143.182 118.394 141.273 119.909C139.364 121.424 137.909 123.561 136.909 126.318C135.939 129.045 135.455 132.273 135.455 136C135.455 139.727 135.955 142.924 136.955 145.591C137.955 148.258 139.394 150.303 141.273 151.727C143.182 153.152 145.515 153.864 148.273 153.864ZM216.07 172.318C212.798 172.318 209.995 171.167 207.661 168.864C205.358 166.561 204.222 163.773 204.252 160.5C204.222 157.288 205.358 154.545 207.661 152.273C209.995 149.97 212.798 148.818 216.07 148.818C219.161 148.818 221.889 149.97 224.252 152.273C226.646 154.545 227.858 157.288 227.889 160.5C227.858 162.682 227.283 164.667 226.161 166.455C225.07 168.242 223.631 169.667 221.843 170.727C220.086 171.788 218.161 172.318 216.07 172.318Z" fill="white"/>
</svg>
