<svg width="25" height="23" viewBox="0 0 25 23" fill="none" xmlns="http://www.w3.org/2000/svg">
<path d="M23.5812 7.70372L17.0189 6.747L14.0859 0.80008C13.5604 -0.259945 12.0377 -0.27342 11.5077 0.80008L8.57468 6.747L2.01241 7.70372C0.835598 7.8744 0.363977 9.3252 1.21739 10.1561L5.96504 14.7825L4.84213 21.3179C4.64001 22.4992 5.88419 23.384 6.92625 22.8315L12.7968 19.7458L18.6674 22.8315C19.7094 23.3795 20.9536 22.4992 20.7515 21.3179L19.6286 14.7825L24.3762 10.1561C25.2297 9.3252 24.758 7.8744 23.5812 7.70372ZM17.3154 14.0279L18.3799 20.2444L12.7968 17.3113L7.21372 20.2444L8.27823 14.0279L3.75965 9.62614L10.003 8.71883L12.7968 3.05937L15.5906 8.71883L21.834 9.62614L17.3154 14.0279Z" fill="#DADADA"/>
</svg>
