<svg width="249" height="261" viewBox="0 0 249 261" fill="none" xmlns="http://www.w3.org/2000/svg">
<path d="M0 33C0 14.7746 14.7746 0 33 0H216C234.225 0 249 14.7746 249 33V228C249 246.225 234.225 261 216 261H33C14.7746 261 0 246.225 0 228V33Z" fill="url(#paint0_linear_2_11)"/>
<path d="M39.0682 100.659C38.8106 99.7045 38.4318 98.8636 37.9318 98.1364C37.4318 97.3939 36.8182 96.7652 36.0909 96.25C35.3636 95.7348 34.5303 95.3485 33.5909 95.0909C32.6515 94.8182 31.6212 94.6818 30.5 94.6818C28.2424 94.6818 26.2879 95.2273 24.6364 96.3182C23 97.4091 21.7348 99 20.8409 101.091C19.947 103.167 19.5 105.689 19.5 108.659C19.5 111.644 19.9318 114.189 20.7955 116.295C21.6591 118.402 22.9091 120.008 24.5455 121.114C26.1818 122.22 28.1667 122.773 30.5 122.773C32.5606 122.773 34.303 122.439 35.7273 121.773C37.1667 121.091 38.2576 120.129 39 118.886C39.7424 117.644 40.1136 116.182 40.1136 114.5L42.2045 114.75H30.8864V106.545H50.9545V112.705C50.9545 116.871 50.0682 120.439 48.2955 123.409C46.5379 126.379 44.1136 128.659 41.0227 130.25C37.947 131.841 34.4091 132.636 30.4091 132.636C25.9697 132.636 22.0682 131.674 18.7045 129.75C15.3409 127.826 12.7197 125.083 10.8409 121.523C8.96212 117.947 8.02273 113.705 8.02273 108.795C8.02273 104.977 8.59091 101.591 9.72727 98.6364C10.8636 95.6667 12.447 93.1515 14.4773 91.0909C16.5227 89.0303 18.8864 87.4697 21.5682 86.4091C24.2652 85.3485 27.1667 84.8182 30.2727 84.8182C32.9697 84.8182 35.4773 85.2045 37.7955 85.9773C40.1288 86.75 42.1894 87.8409 43.9773 89.25C45.7803 90.6591 47.2424 92.3333 48.3636 94.2727C49.4848 96.2121 50.1818 98.3409 50.4545 100.659H39.0682Z" fill="#252525"/>
<path d="M66.2159 132H54.125L69.8295 85.4545H84.8068L100.511 132H88.4205L77.4886 97.1818H77.125L66.2159 132ZM64.6023 113.682H89.875V122.227H64.6023V113.682Z" fill="#252525"/>
<path d="M105.523 85.4545H119.455L131.273 114.273H131.818L143.636 85.4545H157.568V132H146.614V103.409H146.227L135.045 131.705H128.045L116.864 103.25H116.477V132H105.523V85.4545Z" fill="#252525"/>
<path d="M164.585 132V85.4545H197.04V94.5909H175.835V104.136H195.381V113.295H175.835V122.864H197.04V132H164.585Z" fill="#252525"/>
<path d="M204.085 132V85.4545H223.312C226.797 85.4545 229.805 86.0833 232.335 87.3409C234.881 88.5833 236.843 90.3712 238.222 92.7045C239.6 95.0227 240.29 97.7727 240.29 100.955C240.29 104.182 239.585 106.924 238.176 109.182C236.767 111.424 234.767 113.136 232.176 114.318C229.585 115.485 226.517 116.068 222.972 116.068H210.812V107.205H220.881C222.578 107.205 223.994 106.985 225.131 106.545C226.282 106.091 227.153 105.409 227.744 104.5C228.335 103.576 228.631 102.394 228.631 100.955C228.631 99.5152 228.335 98.3258 227.744 97.3864C227.153 96.4318 226.282 95.7197 225.131 95.25C223.979 94.7652 222.562 94.5227 220.881 94.5227H215.335V132H204.085ZM230.29 110.727L241.881 132H229.608L218.244 110.727H230.29Z" fill="#252525"/>
<path d="M72.1307 178.545C69.9034 178.545 67.9432 177.96 66.25 176.79C64.5568 175.608 63.233 173.994 62.2784 171.949C61.3352 169.903 60.8636 167.585 60.8636 164.994C60.8636 162.403 61.3409 160.085 62.2955 158.04C63.25 155.994 64.5739 154.381 66.267 153.199C67.9602 152.017 69.9091 151.426 72.1136 151.426C73.7727 151.426 75.2841 151.767 76.6477 152.449C78.0227 153.131 79.1591 154.08 80.0568 155.295C80.9659 156.511 81.5455 157.92 81.7955 159.523H79.6818C79.3409 157.75 78.4886 156.284 77.125 155.125C75.7727 153.955 74.108 153.369 72.1307 153.369C70.358 153.369 68.7784 153.869 67.392 154.869C66.0057 155.858 64.9148 157.227 64.1193 158.977C63.3239 160.716 62.9261 162.71 62.9261 164.96C62.9261 167.176 63.3125 169.165 64.0852 170.926C64.858 172.676 65.9375 174.062 67.3239 175.085C68.7102 176.108 70.3125 176.619 72.1307 176.619C73.4148 176.619 74.5852 176.364 75.642 175.852C76.7102 175.341 77.6023 174.614 78.3182 173.67C79.0341 172.727 79.5057 171.625 79.733 170.364H81.8466C81.5966 171.977 81.0284 173.398 80.142 174.625C79.2557 175.852 78.125 176.812 76.75 177.506C75.375 178.199 73.8352 178.545 72.1307 178.545Z" fill="#252525"/>
<path d="M103.977 143.091V178H101.897V143.091H103.977Z" fill="#252525"/>
<path d="M142.318 168.71V151.818H144.397V178H142.318V173.756H142.147C141.534 175.108 140.539 176.21 139.164 177.062C137.801 177.915 136.187 178.341 134.323 178.341C132.607 178.341 131.09 177.966 129.772 177.216C128.454 176.466 127.42 175.403 126.67 174.028C125.92 172.642 125.545 170.994 125.545 169.085V151.818H127.625V169C127.625 171.182 128.284 172.949 129.602 174.301C130.931 175.642 132.647 176.312 134.75 176.312C136.113 176.312 137.369 176.006 138.517 175.392C139.664 174.778 140.585 173.903 141.278 172.767C141.971 171.619 142.318 170.267 142.318 168.71Z" fill="#252525"/>
<path d="M166.707 178V143.091H168.769V157.665H168.974C169.383 156.54 169.962 155.506 170.712 154.562C171.462 153.619 172.394 152.864 173.508 152.295C174.621 151.716 175.923 151.426 177.411 151.426C179.514 151.426 181.349 152.011 182.917 153.182C184.485 154.341 185.701 155.943 186.565 157.989C187.428 160.023 187.86 162.352 187.86 164.977C187.86 167.625 187.428 169.972 186.565 172.017C185.701 174.051 184.491 175.648 182.934 176.807C181.377 177.966 179.542 178.545 177.428 178.545C175.94 178.545 174.639 178.261 173.525 177.693C172.411 177.114 171.479 176.352 170.729 175.409C169.979 174.455 169.394 173.415 168.974 172.29H168.735V178H166.707ZM168.752 164.96C168.752 167.188 169.087 169.182 169.758 170.943C170.44 172.693 171.417 174.08 172.69 175.102C173.962 176.114 175.485 176.619 177.258 176.619C179.053 176.619 180.587 176.108 181.86 175.085C183.133 174.051 184.104 172.653 184.775 170.892C185.457 169.131 185.798 167.153 185.798 164.96C185.798 162.767 185.457 160.795 184.775 159.045C184.104 157.295 183.133 155.915 181.86 154.903C180.587 153.881 179.053 153.369 177.258 153.369C175.485 153.369 173.962 153.875 172.69 154.886C171.417 155.886 170.44 157.261 169.758 159.011C169.087 160.75 168.752 162.733 168.752 164.96Z" fill="#252525"/>
<defs>
<linearGradient id="paint0_linear_2_11" x1="124.5" y1="0" x2="-14.5" y2="261" gradientUnits="userSpaceOnUse">
<stop stop-color="#D9D9D9"/>
<stop offset="1" stop-color="#737373"/>
</linearGradient>
</defs>
</svg>
