<svg width="25" height="22" viewBox="0 0 25 22" fill="none" xmlns="http://www.w3.org/2000/svg">
<path d="M12.5 0C5.59693 0 0 4.72799 0 10.5556C0 16.3865 5.59693 21.1111 12.5 21.1111C19.4031 21.1111 25 16.3865 25 10.5556C25 4.72799 19.4031 0 12.5 0ZM12.5 4.6819C13.6692 4.6819 14.6169 5.48225 14.6169 6.46953C14.6169 7.45682 13.6692 8.25717 12.5 8.25717C11.3308 8.25717 10.3831 7.45682 10.3831 6.46953C10.3831 5.48225 11.3308 4.6819 12.5 4.6819ZM15.3226 15.4928C15.3226 15.7749 15.0518 16.0036 14.7177 16.0036H10.2823C9.94824 16.0036 9.67742 15.7749 9.67742 15.4928V14.4713C9.67742 14.1893 9.94824 13.9606 10.2823 13.9606H10.8871V11.2366H10.2823C9.94824 11.2366 9.67742 11.0079 9.67742 10.7258V9.7043C9.67742 9.42224 9.94824 9.19355 10.2823 9.19355H13.5081C13.8421 9.19355 14.1129 9.42224 14.1129 9.7043V13.9606H14.7177C15.0518 13.9606 15.3226 14.1893 15.3226 14.4713V15.4928Z" fill="#DADADA"/>
</svg>
